<?xml version="1.0" encoding="UTF-8" standalone="no"?>
<svg xmlns:dc="http://purl.org/dc/elements/1.1/" xmlns:cc="http://creativecommons.org/ns#" xmlns:rdf="http://www.w3.org/1999/02/22-rdf-syntax-ns#" xmlns:svg="http://www.w3.org/2000/svg" xmlns="http://www.w3.org/2000/svg" width="1019.9989mm" height="197.291mm" viewBox="0 0 1019.9989 197.291" version="1.1" id="svg337">
  <defs id="defs331"/>
  <metadata id="metadata334">
    <rdf:RDF>
      <cc:Work rdf:about="">
        <dc:format>image/svg+xml</dc:format>
        <dc:type rdf:resource="http://purl.org/dc/dcmitype/StillImage"/>
        <dc:title/>
      </cc:Work>
    </rdf:RDF>
  </metadata>
  <g id="layer1" transform="translate(18.391054,-121.04638)">
    <g id="g92" transform="matrix(1.9109988,0,0,-1.9109988,479.09442,208.28532)">
      <path d="M 0,0 V 36.166 H -9.308 V -6.426 c 0,-1.431 1.068,-2.377 2.378,-2.377 H 19.443 L 23.372,0 Z m -16.36,-37.837 c -15.977,0 -24.559,8.201 -24.559,25.468 v 48.535 h -10.034 v -49.605 c 0,-21.195 12.29,-33.927 31.734,-33.927 H 1.915 l 4.29,9.529 z m 3.587,19.16 c -4.896,0 -7.516,2.378 -7.516,7.374 v 47.469 h -9.671 v -47.832 c 0,-10.355 6.085,-16.298 16.703,-16.298 h 23.995 l 4.172,9.287 z" style="fill:#000000;fill-opacity:1;fill-rule:nonzero;stroke:none" id="path94"/>
    </g>
    <g id="g96" transform="matrix(1.9109988,0,0,-1.9109988,587.87879,209.24885)">
      <path d="M 0,0 C 9.034,0 14.25,4.801 14.25,14.56 V 36.656 H 8.724 v -22.2 C 8.724,8.261 5.989,5.009 0,5.009 c -5.937,0 -8.828,3.252 -8.828,9.447 v 22.2 h -5.526 V 14.56 C -14.354,4.801 -9.086,0 0,0 m 20.187,0.516 h 5.162 l 0.052,14.818 c 0,4.284 2.479,6.919 6.505,6.919 3.874,0 5.937,-2.376 5.937,-6.919 V 0.516 h 5.164 V 16.47 c 0,6.247 -3.15,10.377 -9.241,10.377 -3.46,0 -6.557,-1.341 -8.417,-3.665 v 3.149 h -5.162 z m 28.861,0 h 5.163 V 26.33 h -5.163 z m 18.276,0 h 6.505 l 9.81,25.815 H 78.062 L 70.628,4.853 63.091,26.331 H 57.516 Z M 51.681,30.719 c 1.909,0 3.199,1.396 3.199,3.202 0,1.858 -1.238,3.252 -3.199,3.252 -1.91,0 -3.201,-1.343 -3.201,-3.201 0,-1.857 1.342,-3.253 3.201,-3.253 M 98.147,0 c 5.937,0 10.791,3.253 11.926,7.951 H 104.6 c -0.928,-2.064 -3.251,-3.562 -6.505,-3.562 -4.44,0 -7.229,2.426 -7.847,7.125 h 20.083 c 0.104,0.671 0.156,1.496 0.156,2.116 0,7.9 -4.544,13.217 -12.496,13.217 C 90.196,26.847 84.929,21.53 84.929,13.63 84.929,5.06 90.093,0 98.147,0 m -7.899,15.695 c 0.618,4.131 3.304,6.764 7.589,6.764 4.337,0 7.382,-2.89 7.382,-6.764 z m 25.4,-15.179 h 5.163 v 21.168 h 9.088 v 4.647 h -7.487 c -3.922,0 -6.764,-2.839 -6.764,-6.762 z M 142.599,0 c 6.661,0 10.688,2.84 10.688,7.951 0,4.441 -2.479,6.866 -7.125,7.641 l -5.939,0.982 c -2.013,0.31 -3.097,1.291 -3.097,2.943 0,2.064 2.117,3.2 5.111,3.2 3.46,0 5.422,-1.548 5.629,-4.13 h 5.007 c -0.258,5.369 -3.923,8.312 -10.636,8.312 -6.401,0 -9.912,-3.097 -9.912,-7.59 0,-4.336 2.685,-6.557 7.073,-7.279 l 5.473,-0.878 c 2.478,-0.413 3.459,-2.013 3.459,-3.511 0,-2.064 -2.168,-3.303 -5.731,-3.303 -3.872,0 -5.679,1.909 -5.989,3.975 h -5.111 C 131.809,3.253 136.094,0 142.599,0 m 15.851,0.516 h 5.163 V 26.33 h -5.163 z m 18.277,0 h 6.453 v 4.647 h -8.003 v 16.521 h 8.003 v 4.647 h -8.003 v 8.055 h -5.163 V 7.177 c 0,-3.924 2.789,-6.661 6.713,-6.661 m -15.645,30.203 c 1.911,0 3.201,1.396 3.201,3.202 0,1.858 -1.239,3.252 -3.201,3.252 -1.91,0 -3.201,-1.343 -3.201,-3.201 0,-1.857 1.342,-3.253 3.201,-3.253 M 198.927,0 c 5.937,0 10.791,3.253 11.926,7.951 h -5.472 c -0.931,-2.064 -3.254,-3.562 -6.506,-3.562 -4.439,0 -7.229,2.426 -7.848,7.125 h 20.084 c 0.104,0.671 0.155,1.496 0.155,2.116 0,7.9 -4.542,13.217 -12.494,13.217 -7.795,0 -13.062,-5.317 -13.062,-13.217 C 185.71,5.06 190.873,0 198.927,0 m -7.9,15.695 c 0.619,4.131 3.305,6.764 7.59,6.764 4.336,0 7.383,-2.89 7.383,-6.764 z m 5.369,13.476 h 4.647 l 4.853,7.485 h -6.091 z M -1.171,-42.823 c -5.264,0 -8.26,3.872 -8.26,8.777 0,4.905 3.047,8.777 8.26,8.777 4.905,0 8.313,-3.872 8.313,-8.777 0,-4.905 -3.253,-8.777 -8.313,-8.777 m -1.134,-4.543 c 4.181,0 7.381,1.29 9.241,4.08 v -3.563 h 5.163 v 36.14 H 6.936 v -13.94 c -1.86,2.375 -5.162,4.131 -9.138,4.131 -7.279,0 -12.65,-5.525 -12.65,-13.528 0,-8.002 5.215,-13.32 12.547,-13.32 m 32.267,0 c 5.939,0 10.79,3.252 11.928,7.951 h -5.474 c -0.929,-2.066 -3.253,-3.561 -6.505,-3.561 -4.441,0 -7.228,2.425 -7.847,7.123 h 20.084 c 0.102,0.671 0.153,1.498 0.153,2.117 0,7.899 -4.542,13.218 -12.493,13.218 -7.796,0 -13.062,-5.319 -13.062,-13.218 0,-8.57 5.163,-13.63 13.216,-13.63 m -7.898,15.696 c 0.619,4.129 3.304,6.763 7.59,6.763 4.335,0 7.382,-2.892 7.382,-6.763 z M 58.976,-46.849 H 79.834 V -42.1 H 64.5 v 31.391 h -5.524 z m 24.576,0 h 5.163 v 25.815 h -5.163 z m 18.224,0 h 5.164 v 4.749 h -6.66 v 31.391 H 95.117 V -40.24 c 0,-4.132 2.426,-6.609 6.659,-6.609 m -15.592,30.203 c 1.911,0 3.202,1.393 3.202,3.2 0,1.858 -1.24,3.252 -3.202,3.252 -1.911,0 -3.201,-1.342 -3.201,-3.2 0,-1.859 1.342,-3.252 3.201,-3.252 m 30.255,-30.203 h 5.163 v 4.749 h -6.66 v 31.391 h -5.163 V -40.24 c 0,-4.132 2.427,-6.609 6.66,-6.609 m 19.671,-0.517 c 5.937,0 10.79,3.252 11.926,7.951 h -5.473 c -0.93,-2.066 -3.252,-3.561 -6.505,-3.561 -4.44,0 -7.228,2.425 -7.847,7.123 h 20.083 c 0.103,0.671 0.154,1.498 0.154,2.117 0,7.899 -4.542,13.218 -12.492,13.218 -7.797,0 -13.064,-5.319 -13.064,-13.218 0,-8.57 5.163,-13.63 13.218,-13.63 m -7.899,15.696 c 0.619,4.129 3.303,6.763 7.589,6.763 4.337,0 7.382,-2.892 7.382,-6.763 z" style="fill:#000000;fill-opacity:1;fill-rule:nonzero;stroke:none" id="path98"/>
    </g>
    <g id="g100" transform="matrix(1.9109988,0,0,-1.9109988,308.5458,131.04638)">
      <path d="M 0,0 V -92.774" style="fill:none;stroke:#000000;stroke-width:0.687;stroke-linecap:butt;stroke-linejoin:miter;stroke-miterlimit:10;stroke-dasharray:none;stroke-opacity:1" id="path102"/>
    </g>
    <g id="g104" transform="matrix(1.9109988,0,0,-1.9109988,129.37744,242.12376)" style="fill:#ff6941;fill-opacity:1">
      <path d="m 0,0 c 0,-11.264 -4.856,-16.686 -15.281,-17.038 -10.424,0.352 -15.28,5.774 -15.28,17.038 l -0.035,29.926 H -44.662 V -0.22 c 0,-9.932 3.177,-17.993 9.188,-23.31 4.863,-4.302 11.422,-6.633 18.965,-6.633 h 2.388 c 7.544,0 14.104,2.331 18.967,6.633 6.01,5.317 9.185,13.378 9.185,23.31 V 29.926 H -0.035 Z" style="fill:#ff6941;fill-opacity:1;fill-rule:nonzero;stroke:none" id="path106"/>
    </g>
    <g id="g108" transform="matrix(1.9109988,0,0,-1.9109988,-8.3910541,262.76847)" style="fill:#ff6941;fill-opacity:1">
      <path d="M 0,0 13.901,4.336 V 40.729 H 0 Z" style="fill:#ff6941;fill-opacity:1;fill-rule:nonzero;stroke:none" id="path110"/>
    </g>
    <g id="g112" transform="matrix(1.9109988,0,0,-1.9109988,-8.3910541,299.76579)" style="fill:#ff6941;fill-opacity:1">
      <path d="M 0,0 H 13.901 V 16.645 L 0,12.284 Z" style="fill:#ff6941;fill-opacity:1;fill-rule:nonzero;stroke:none" id="path114"/>
    </g>
    <g id="g116" transform="matrix(1.9109988,0,0,-1.9109988,235.14759,170.30155)" style="fill:#ff6941;fill-opacity:1">
      <path d="m 0,0 h -13.888 l 0.002,16.644 H -27.787 L -27.789,-17.114 0,-8.447 Z" style="fill:#ff6941;fill-opacity:1;fill-rule:nonzero;stroke:none" id="path118"/>
    </g>
    <g id="g120" transform="matrix(1.9109988,0,0,-1.9109988,227.77419,275.91557)" style="fill:#ff6941;fill-opacity:1">
      <path d="m 0,0 c -5.803,0 -8.85,2.688 -9.769,7.663 -0.172,0.929 -0.258,1.949 -0.258,3.06 L -10.029,35.437 -23.93,31.11 v -0.033 l 0.001,-0.005 h -0.001 v -20.78 c 0,-14.535 7.588,-22.541 21.439,-22.541 1.306,0 2.576,0.09 3.828,0.264 L 1.36,-11.982 7.041,0.669 C 4.954,0.29 3.083,0 0,0" style="fill:#ff6941;fill-opacity:1;fill-rule:nonzero;stroke:none" id="path122"/>
    </g>
  </g>
</svg>